<?xml version="1.0" encoding="UTF-8" standalone="no"?>
<!DOCTYPE svg PUBLIC "-//W3C//DTD SVG 1.1//EN" "http://www.w3.org/Graphics/SVG/1.1/DTD/svg11.dtd">
<!-- Created with Vectornator (http://vectornator.io/) -->
<svg height="100%" stroke-miterlimit="10" style="fill-rule:nonzero;clip-rule:evenodd;stroke-linecap:round;stroke-linejoin:round;" version="1.1" viewBox="0 0 100 100" width="100%" xml:space="preserve" xmlns="http://www.w3.org/2000/svg" xmlns:xlink="http://www.w3.org/1999/xlink">
<defs/>
<g id="Layer-1">
<g/>
<g fill="#000000" opacity="1" stroke="none">
<path d="M1.97391 67.5524L1.97391 65.8324C3.34991 65.6891 4.39624 65.3809 5.11291 64.9079C5.82958 64.4349 6.43158 63.5821 6.91891 62.3494L18.2279 34.0124L21.4099 34.0124L31.6869 59.1244C32.2889 60.5864 32.8049 61.7403 33.2349 62.5859C33.6649 63.4316 34.1092 64.0694 34.5679 64.4994C35.0266 64.9294 35.5641 65.2304 36.1804 65.4024C36.7967 65.5744 37.5922 65.7034 38.5669 65.7894L38.5669 67.5524L22.3129 67.5524L22.3129 65.7894C23.6889 65.7321 24.6779 65.5888 25.2799 65.3594C25.8819 65.1301 26.1829 64.6714 26.1829 63.9834C26.1829 63.5821 26.0826 63.0589 25.8819 62.4139C25.6812 61.7689 25.4089 61.0021 25.0649 60.1134L24.0759 57.5334L11.9069 57.5334C11.2189 59.0814 10.7101 60.3714 10.3804 61.4034C10.0507 62.4354 9.88591 63.2524 9.88591 63.8544C9.88591 64.7144 10.2084 65.2591 10.8534 65.4884C11.4984 65.7178 12.4659 65.8324 13.7559 65.8324L13.7559 67.5524L1.97391 67.5524ZM12.8959 54.9534L23.1299 54.9534L18.1849 41.9244L18.0129 41.9244L12.8959 54.9534Z"/>
<path d="M31.7609 67.5524L31.7609 65.8324C33.1369 65.6891 34.1832 65.3809 34.8999 64.9079C35.6166 64.4349 36.2186 63.5821 36.7059 62.3494L48.0149 34.0124L51.1969 34.0124L61.4739 59.1244C62.0759 60.5864 62.5919 61.7403 63.0219 62.5859C63.4519 63.4316 63.8962 64.0694 64.3549 64.4994C64.8136 64.9294 65.3511 65.2304 65.9674 65.4024C66.5837 65.5744 67.3792 65.7034 68.3539 65.7894L68.3539 67.5524L52.0999 67.5524L52.0999 65.7894C53.4759 65.7321 54.4649 65.5888 55.0669 65.3594C55.6689 65.1301 55.9699 64.6714 55.9699 63.9834C55.9699 63.5821 55.8696 63.0589 55.6689 62.4139C55.4682 61.7689 55.1959 61.0021 54.8519 60.1134L53.8629 57.5334L41.6939 57.5334C41.0059 59.0814 40.4971 60.3714 40.1674 61.4034C39.8377 62.4354 39.6729 63.2524 39.6729 63.8544C39.6729 64.7144 39.9954 65.2591 40.6404 65.4884C41.2854 65.7178 42.2529 65.8324 43.5429 65.8324L43.5429 67.5524L31.7609 67.5524ZM42.6829 54.9534L52.9169 54.9534L47.9719 41.9244L47.7999 41.9244L42.6829 54.9534Z"/>
<path d="M91.9919 42.7414C91.9919 45.1172 91.3039 47.1095 89.9279 48.7184C88.5519 50.3273 86.3589 51.4023 83.3489 51.9434L93.3249 63.3814C94.0129 64.1841 94.8299 64.7933 95.7759 65.2089C96.7219 65.6246 97.6822 65.8324 98.6569 65.8324L98.6569 67.5524L88.4659 67.5524L77.8019 54.4804C77.3432 53.9071 76.9132 53.4628 76.5119 53.1474C76.1106 52.8321 75.7451 52.6099 75.4154 52.4809C75.0857 52.3519 74.7632 52.2874 74.4479 52.2874L74.4479 60.7154C74.4479 62.1201 74.591 63.1951 74.8772 63.9404C75.1635 64.6858 75.7508 65.1874 76.6392 65.4454C77.5277 65.7034 78.8756 65.8324 80.6829 65.8324L80.6829 67.5524L63.6119 67.5524L63.6119 65.8324C64.8732 65.8324 65.8264 65.7034 66.4714 65.4454C67.1164 65.1874 67.5536 64.7108 67.7829 64.0157C68.0122 63.3205 68.1269 62.2921 68.1269 60.9304L68.1269 41.049C68.1269 39.7119 68.0336 38.7066 67.8471 38.0329C67.6605 37.3593 67.2807 36.8934 66.7076 36.6354C66.1345 36.3774 65.2602 36.2184 64.0849 36.1584L64.0849 34.4424L78.9629 34.4424C83.0806 34.4424 86.2815 35.1734 88.5657 36.6354C90.8498 38.0974 91.9919 40.1328 91.9919 42.7414ZM74.4479 37.5599L74.4479 49.7074L77.2429 49.7074C79.9367 49.7074 81.9503 49.1771 83.2837 48.1164C84.6172 47.0558 85.2839 45.3358 85.2839 42.9564C85.2839 41.1218 84.7249 39.6454 83.6069 38.5274C82.4889 37.4094 80.9409 36.8504 78.9629 36.8504L75.2219 36.8504C74.7059 36.8504 74.4479 37.0869 74.4479 37.5599Z"/>
</g>
</g>
</svg>
