<?xml version="1.0" encoding="UTF-8" standalone="no"?>
<!DOCTYPE svg PUBLIC "-//W3C//DTD SVG 1.1//EN" "http://www.w3.org/Graphics/SVG/1.1/DTD/svg11.dtd">
<!-- Created with Vectornator (http://vectornator.io/) -->
<svg height="100%" stroke-miterlimit="10" style="fill-rule:nonzero;clip-rule:evenodd;stroke-linecap:round;stroke-linejoin:round;" version="1.1" viewBox="0 0 2048 2048" width="100%" xml:space="preserve" xmlns="http://www.w3.org/2000/svg" xmlns:xlink="http://www.w3.org/1999/xlink">
<defs/>
<g id="Layer-1">
<path d="M2.27374e-13 1024C2.27374e-13 458.46 458.46 0 1024 0C1589.54 0 2048 458.46 2048 1024C2048 1589.54 1589.54 2048 1024 2048C458.46 2048 2.27374e-13 1589.54 2.27374e-13 1024Z" fill="#000000" fill-rule="nonzero" opacity="1" stroke="none"/>
<g fill="#ffffff" opacity="1" stroke="#ffffff" stroke-linecap="butt" stroke-linejoin="round" stroke-width="56.2487">
<path d="M443.031 734.064L499.64 734.064C515.303 734.064 528.355 729.813 538.797 721.31C549.835 712.211 555.354 698.264 555.354 679.469C555.354 647.994 530.369 632.257 480.398 632.257L443.031 632.257L443.031 734.064ZM389.555 926.266L389.555 587.283L503.444 587.283C555.802 587.283 588.917 606.004 602.789 643.445C606.817 654.334 608.831 665.596 608.831 677.231C608.831 688.866 607.526 699.457 604.915 709.004C602.305 718.55 598.464 727.426 593.392 735.63C582.204 753.53 565.721 764.792 543.943 769.417L606.593 926.266L551.774 926.266L493.151 779.262L443.031 779.262L443.031 926.266L389.555 926.266Z"/>
<path d="M746.829 791.145L806.578 791.145L776.809 687.904L746.829 791.145ZM656.045 926.266L747.252 606.409L802.567 606.409L893.774 926.266L845.004 926.266L818.613 833.581L734.795 833.581L708.404 926.266L656.045 926.266Z"/>
<path d="M1013.39 883.83L1043.79 883.83C1073.21 883.83 1095.87 873.203 1111.77 851.949C1127.4 830.837 1135.21 803.038 1135.21 768.554C1135.21 702.823 1114.17 664.117 1072.08 652.434C1063.5 650.042 1054.07 648.845 1043.79 648.845L1013.39 648.845L1013.39 883.83ZM962.929 926.266L962.929 606.409L1038.3 606.409C1115.43 606.409 1162.02 637.444 1178.07 699.516C1183.13 719.362 1185.67 740.263 1185.67 762.22C1185.67 784.178 1184.15 802.686 1181.13 817.747C1178.1 832.807 1172.93 847.093 1165.61 860.606C1158.29 874.118 1149.14 885.659 1138.16 895.23C1114.1 915.921 1080.81 926.266 1038.3 926.266L962.929 926.266Z" stroke-width="46.7604"/>
<path d="M1260.1 926.266L1260.1 606.409L1310.56 606.409L1310.56 926.266L1260.1 926.266Z" stroke-width="43.8417"/>
<path d="M1441.79 721.684C1440.38 729.988 1439.39 737.8 1438.83 745.119C1438.27 752.438 1437.99 759.933 1437.99 767.604C1437.99 775.275 1438.27 782.84 1438.83 790.3C1439.39 797.76 1440.41 805.642 1441.89 813.946C1443.37 822.251 1445.24 829.922 1447.49 836.959C1449.74 843.997 1452.8 850.788 1456.67 857.333C1460.54 863.878 1464.87 869.473 1469.66 874.118C1480.49 884.252 1494.15 889.319 1510.61 889.319C1556.36 889.319 1579.23 848.642 1579.23 767.287C1579.23 700.994 1563.75 661.02 1532.78 647.367C1526.03 644.411 1518.53 642.934 1510.3 642.934C1502.06 642.934 1494.46 644.411 1487.5 647.367C1480.53 650.323 1474.62 654.229 1469.76 659.085C1464.91 663.941 1460.54 669.817 1456.67 676.714C1452.8 683.611 1449.74 690.719 1447.49 698.038C1445.24 705.357 1443.34 713.239 1441.79 721.684ZM1389.64 799.379C1388.23 788.682 1387.53 778.055 1387.53 767.499C1387.53 756.942 1388.16 746.315 1389.43 735.618C1390.69 724.921 1392.81 714.048 1395.76 702.999C1398.72 691.95 1402.38 681.499 1406.74 671.647C1411.1 661.794 1416.63 652.469 1423.31 643.673C1430 634.876 1437.49 627.31 1445.8 620.976C1463.67 607.323 1485.42 600.497 1511.04 600.497C1546.22 600.497 1574.38 614.994 1595.49 643.989C1618.29 675.518 1629.69 716.687 1629.69 767.499C1629.69 819.295 1618.71 860.113 1596.75 889.952C1576.2 917.821 1547.63 931.755 1511.04 931.755C1476.27 931.755 1447.77 917.751 1425.53 889.741C1406.67 866.095 1394.71 835.974 1389.64 799.379Z" stroke-width="36.7318"/>
<path d="M407.982 1409.98L407.982 1090.12L439.229 1090.12L439.229 1409.98L407.982 1409.98Z" stroke-width="36.7318"/>
<path d="M537.52 1409.98L537.52 1090.12L587.346 1090.12L716.344 1333.76L716.344 1090.12L747.591 1090.12L747.591 1409.98L720.778 1409.98L568.766 1121.16L568.766 1409.98L537.52 1409.98Z" stroke-width="43.8417"/>
<path d="M845.882 1409.98L845.882 1090.12L922.099 1090.12C992.756 1090.12 1035.97 1121.51 1051.73 1184.28C1056.8 1204.55 1059.33 1225.24 1059.33 1246.36C1059.33 1267.47 1057.85 1285.49 1054.9 1300.4C1051.94 1315.32 1047.05 1329.58 1040.22 1343.16C1033.4 1356.74 1024.85 1368.39 1014.57 1378.1C991.911 1399.35 961.087 1409.98 922.099 1409.98L845.882 1409.98ZM877.129 1383.8L922.099 1383.8C968.124 1383.8 999.371 1364.17 1015.84 1324.9C1024 1305.19 1028.08 1281.12 1028.08 1252.69C1028.08 1202.16 1018.37 1166.13 998.949 1144.59C991.348 1136.29 981.038 1129.5 968.019 1124.22C954.999 1118.94 939.692 1116.3 922.099 1116.3L877.129 1116.3L877.129 1383.8Z" stroke-width="46.7604"/>
<path d="M1144.95 1409.98L1144.95 1090.12L1318.29 1090.12L1318.29 1116.3L1176.2 1116.3L1176.2 1228.83L1278.18 1228.83L1278.18 1255.01L1176.2 1255.01L1176.2 1381.9L1326.31 1381.9L1326.31 1409.98L1144.95 1409.98Z"/>
<path d="M1389.03 1409.98L1486.81 1237.02L1393.05 1071L1427.51 1071L1507.84 1212.85L1585.7 1071L1620.16 1071L1524.4 1242.17L1619.49 1409.98L1584.59 1409.98L1504.26 1267.67L1423.93 1409.98L1389.03 1409.98Z"/>
</g>
</g>
</svg>
