<svg xmlns="http://www.w3.org/2000/svg" viewBox="220 930 1550 230" fill="#ffffff">
<g stroke="#ffffff" stroke-linecap="butt" stroke-linejoin="round" stroke-width="32.7856">
<path d="M265.735 1027.65L298.731 1027.65C307.86 1027.65 315.468 1025.17 321.554 1020.22C327.988 1014.91 331.205 1006.78 331.205 995.829C331.205 977.483 316.641 968.31 287.515 968.31L265.735 968.31L265.735 1027.65ZM234.565 1139.68L234.565 942.097L300.948 942.097C331.465 942.097 350.767 953.008 358.853 974.831C361.201 981.178 362.374 987.743 362.374 994.524C362.374 1001.31 361.614 1007.48 360.092 1013.04C358.571 1018.61 356.332 1023.78 353.376 1028.56C346.855 1039 337.247 1045.56 324.553 1048.26L361.07 1139.68L329.118 1139.68L294.949 1053.99L265.735 1053.99L265.735 1139.68L234.565 1139.68Z"/>
<path d="M442.809 1060.92L477.635 1060.92L460.284 1000.75L442.809 1060.92ZM389.894 1139.68L443.056 953.244L475.297 953.244L528.459 1139.68L500.032 1139.68L484.65 1085.66L435.795 1085.66L420.413 1139.68L389.894 1139.68Z"/>
<path d="M598.178 1114.94L615.899 1114.94C633.045 1114.94 646.253 1108.75 655.524 1096.36C664.63 1084.06 669.183 1067.85 669.183 1047.75C669.183 1009.44 656.919 986.88 632.389 980.071C627.384 978.676 621.888 977.979 615.899 977.979L598.178 977.979L598.178 1114.94ZM568.767 1139.68L568.767 953.244L612.699 953.244C657.657 953.244 684.812 971.334 694.164 1007.51C697.118 1019.08 698.595 1031.26 698.595 1044.06C698.595 1056.86 697.713 1067.65 695.949 1076.43C694.185 1085.2 691.17 1093.53 686.904 1101.41C682.638 1109.28 677.305 1116.01 670.906 1121.59C656.878 1133.65 637.475 1139.68 612.699 1139.68L568.767 1139.68Z" stroke-width="27.2552"/>
<path d="M741.979 1139.68L741.979 953.244L771.391 953.244L771.391 1139.68L741.979 1139.68Z" stroke-width="25.554"/>
<path d="M847.878 1020.43C847.058 1025.27 846.484 1029.83 846.156 1034.09C845.827 1038.36 845.663 1042.73 845.663 1047.2C845.663 1051.67 845.827 1056.08 846.156 1060.43C846.484 1064.78 847.079 1069.37 847.94 1074.21C848.801 1079.05 849.888 1083.52 851.201 1087.62C852.514 1091.73 854.298 1095.69 856.554 1099.5C858.81 1103.31 861.333 1106.58 864.122 1109.28C870.439 1115.19 878.397 1118.14 887.996 1118.14C914.659 1118.14 927.99 1094.43 927.99 1047.02C927.99 1008.37 918.966 985.076 900.917 977.118C896.979 975.395 892.611 974.533 887.811 974.533C883.012 974.533 878.582 975.395 874.521 977.118C870.46 978.841 867.014 981.117 864.184 983.947C861.353 986.778 858.81 990.203 856.554 994.223C854.298 998.243 852.514 1002.39 851.201 1006.65C849.888 1010.92 848.781 1015.51 847.878 1020.43ZM817.483 1065.72C816.662 1059.49 816.252 1053.29 816.252 1047.14C816.252 1040.99 816.621 1034.79 817.36 1028.56C818.098 1022.32 819.329 1015.98 821.052 1009.54C822.774 1003.1 824.907 997.012 827.451 991.27C829.994 985.527 833.214 980.092 837.111 974.964C841.008 969.837 845.376 965.427 850.217 961.735C860.636 953.777 873.311 949.799 888.242 949.799C908.752 949.799 925.16 958.249 937.466 975.149C950.756 993.526 957.401 1017.52 957.401 1047.14C957.401 1077.33 951.002 1101.12 938.204 1118.51C926.226 1134.76 909.572 1142.88 888.242 1142.88C867.978 1142.88 851.365 1134.72 838.403 1118.39C827.41 1104.61 820.436 1087.05 817.483 1065.72Z" stroke-width="21.4098"/>
<path d="M1047.89 1139.68L1047.89 953.244L1066.1 953.244L1066.1 1139.68L1047.89 1139.68Z" stroke-width="21.4098"/>
<path d="M1123.39 1139.68L1123.39 953.244L1152.44 953.244L1227.63 1095.25L1227.63 953.244L1245.84 953.244L1245.84 1139.68L1230.21 1139.68L1141.61 971.334L1141.61 1139.68L1123.39 1139.68Z" stroke-width="25.554"/>
<path d="M1303.13 1139.68L1303.13 953.244L1347.55 953.244C1388.74 953.244 1413.92 971.539 1423.11 1008.13C1426.06 1019.94 1427.54 1032 1427.54 1044.31C1427.54 1056.61 1426.68 1067.12 1424.96 1075.81C1423.23 1084.51 1420.38 1092.81 1416.4 1100.73C1412.43 1108.65 1407.44 1115.44 1401.45 1121.1C1388.24 1133.49 1370.28 1139.68 1347.55 1139.68L1303.13 1139.68ZM1321.34 1124.42L1347.55 1124.42C1374.38 1124.42 1392.59 1112.98 1402.19 1090.09C1406.95 1078.6 1409.33 1064.57 1409.33 1048C1409.33 1018.55 1403.67 997.546 1392.35 984.993C1387.92 980.153 1381.91 976.195 1374.32 973.118C1366.73 970.042 1357.81 968.504 1347.55 968.504L1321.34 968.504L1321.34 1124.42Z" stroke-width="27.2552"/>
<path d="M1477.45 1139.68L1477.45 953.244L1578.48 953.244L1578.48 968.504L1495.66 968.504L1495.66 1034.09L1555.1 1034.09L1555.1 1049.35L1495.66 1049.35L1495.66 1123.31L1583.16 1123.31L1583.16 1139.68L1477.45 1139.68Z"/>
<path d="M1619.71 1139.68L1676.7 1038.87L1622.06 942.097L1642.14 942.097L1688.96 1024.78L1734.35 942.097L1754.43 942.097L1698.61 1041.87L1754.04 1139.68L1733.7 1139.68L1686.88 1056.73L1640.06 1139.68L1619.71 1139.68Z"/>
</g>
</svg>